<svg width="239" height="239" viewBox="0 0 239 239" fill="none" xmlns="http://www.w3.org/2000/svg">
<path d="M0 197.835V223.165H1.88162V210.709H9.54749V208.83H1.88162V199.714H12.8229V197.835H0Z" fill="white"/>
<path d="M63.4821 208.83H55.8163V199.714H65.4335V197.835H53.9347V223.165H66.7576V221.286H55.8163V210.709H63.4821V208.83Z" fill="white"/>
<path d="M109.264 197V223.165H111.146V202.149L129.509 224V197.835H127.628V218.851L109.264 197Z" fill="white"/>
<path d="M174.609 223.165V197.835H172.727V223.165H174.609Z" fill="white"/>
<path d="M239 222.573L228.337 209.874L237.99 198.392L236.561 197.174L227.118 208.412L217.675 197.209L216.246 198.392L225.794 209.769L215.027 222.573L216.49 223.756L227.013 211.231L237.571 223.791L239 222.573Z" fill="white"/>
<path d="M189.08 54.101C138.558 18.5111 53.5196 14.501 9.99998 14C14.0019 59.6146 37.5124 98.2119 50.018 111.746C63.0239 92.1967 86.8679 78.4955 98.5398 74.1513C88.0351 65.6298 84.5333 53.0982 84.5333 43.5744C111.045 61.6197 145.061 57.7822 168.571 70.1412C192.082 82.5001 195.083 109.741 194.083 122.272C183.078 112.247 161.493 112.355 151.063 127.285C130.053 157.361 173.776 187.5 206.588 165.381C240.603 142.451 233.6 83.174 189.08 54.101Z" fill="white"/>
</svg>
