<svg width="128" height="128" viewBox="0 0 128 128" fill="none" xmlns="http://www.w3.org/2000/svg">
<path d="M105.148 40.4968C75.4834 19.6432 25.5528 17.2936 0 17C2.34972 43.7274 16.1541 66.3431 23.4968 74.2732C31.1333 62.8186 45.1335 54.7905 51.9867 52.245C45.8188 47.2519 43.7627 39.9092 43.7627 34.3288C59.3294 44.9023 79.3017 42.6538 93.106 49.8953C106.91 57.1369 108.673 73.0984 108.085 80.4411C101.624 74.567 88.9502 74.6299 82.8262 83.3782C70.49 101.001 96.1622 118.661 115.428 105.7C135.4 92.2644 131.288 57.5318 105.148 40.4968Z" fill="url(#paint0_linear_9998_14649)"/>
<defs>
<linearGradient id="paint0_linear_9998_14649" x1="128.063" y1="17.1107" x2="5.53988" y2="99.148" gradientUnits="userSpaceOnUse">
<stop stop-color="#F6781A"/>
<stop offset="1" stop-color="#F9386D"/>
</linearGradient>
</defs>
</svg>
